<svg width="36" height="36" viewBox="0 0 36 36" fill="none" xmlns="http://www.w3.org/2000/svg">
<path d="M12 18L12 12C12 8.68629 14.6863 6 18 6V6C21.3137 6 24 8.68629 24 12L24 18" stroke="white" stroke-width="2.83333" stroke-linecap="round"/>
<path d="M5.56699 18.6961C5.77252 16.2298 5.87528 14.9967 6.68857 14.2483C7.50185 13.5 8.73926 13.5 11.2141 13.5H24.7859C27.2607 13.5 28.4981 13.5 29.3114 14.2483C30.1247 14.9967 30.2275 16.2298 30.433 18.6961L31.2443 28.4314C31.3639 29.8672 31.4238 30.5851 31.0029 31.0426C30.582 31.5 29.8616 31.5 28.4207 31.5H7.57927C6.13844 31.5 5.41803 31.5 4.99713 31.0426C4.57624 30.5851 4.63607 29.8672 4.75572 28.4314L5.56699 18.6961Z" fill="white"/>
</svg>
