<svg width="161" height="25" viewBox="0 0 161 25" fill="none" xmlns="http://www.w3.org/2000/svg">
<path d="M0.28 0.639999H9.528L13.048 14.4L16.568 0.639999H25.816V24H19.928V9.44L16.056 21.408H10.04L6.168 9.44V24H0.28V0.639999ZM41.7178 24.448C39.4991 24.448 37.4511 23.904 35.5738 22.816C33.7178 21.728 32.2351 20.256 31.1258 18.4C30.0378 16.5227 29.4938 14.4747 29.4938 12.256C29.4938 10.0587 30.0378 8.032 31.1258 6.176C32.2351 4.32 33.7178 2.848 35.5738 1.76C37.4511 0.671998 39.4991 0.127998 41.7178 0.127998C43.9151 0.127998 45.9418 0.671998 47.7978 1.76C49.6751 2.848 51.1578 4.32 52.2458 6.176C53.3551 8.032 53.9098 10.0587 53.9098 12.256C53.9098 14.4747 53.3551 16.5227 52.2458 18.4C51.1578 20.256 49.6751 21.728 47.7978 22.816C45.9418 23.904 43.9151 24.448 41.7178 24.448ZM41.7178 18.56C42.8058 18.56 43.8084 18.2827 44.7258 17.728C45.6431 17.152 46.3684 16.384 46.9018 15.424C47.4351 14.464 47.7018 13.408 47.7018 12.256C47.7018 11.1253 47.4351 10.0907 46.9018 9.152C46.3684 8.192 45.6431 7.43467 44.7258 6.88C43.8084 6.304 42.8058 6.016 41.7178 6.016C40.6084 6.016 39.5844 6.304 38.6458 6.88C37.7284 7.43467 36.9924 8.192 36.4378 9.152C35.9044 10.0907 35.6378 11.1253 35.6378 12.256C35.6378 13.408 35.9044 14.464 36.4378 15.424C36.9924 16.384 37.7284 17.152 38.6458 17.728C39.5844 18.2827 40.6084 18.56 41.7178 18.56ZM67.862 0.639999C69.142 0.639999 70.326 0.959999 71.414 1.6C72.5233 2.21867 73.398 3.072 74.038 4.16C74.678 5.248 74.998 6.44267 74.998 7.744C74.998 9.408 74.422 10.7307 73.27 11.712C75.0193 12.736 75.894 14.3253 75.894 16.48C75.894 17.8453 75.5527 19.104 74.87 20.256C74.2087 21.408 73.302 22.3253 72.15 23.008C70.998 23.6693 69.7393 24 68.374 24H57.974V0.639999H67.862ZM67.35 9.184C67.7553 9.184 68.0967 9.04533 68.374 8.768C68.6513 8.49067 68.79 8.14933 68.79 7.744C68.79 7.33867 68.6513 7.008 68.374 6.752C68.0967 6.47467 67.7553 6.336 67.35 6.336H64.182V9.184H67.35ZM68.054 18.112C68.5233 18.112 68.9073 17.9627 69.206 17.664C69.526 17.344 69.686 16.9493 69.686 16.48C69.686 16.0747 69.526 15.712 69.206 15.392C68.886 15.0507 68.502 14.88 68.054 14.88H64.182V18.112H68.054ZM93.6412 24H79.4012V0.639999H85.6092V18.304H93.6412V24ZM96.6813 0.639999H113.161L113.193 6.336H102.921V9.696H111.945V14.944H102.921V18.304H113.161V24H96.6813V0.639999Z" fill="white"/>
<path d="M121.008 6.336H115.376V0.639999H132.976V6.336H127.216V24H121.008V6.336ZM148.493 24.448C146.274 24.448 144.226 23.904 142.349 22.816C140.493 21.728 139.01 20.256 137.901 18.4C136.813 16.5227 136.269 14.4747 136.269 12.256C136.269 10.0587 136.813 8.032 137.901 6.176C139.01 4.32 140.493 2.848 142.349 1.76C144.226 0.671998 146.274 0.127998 148.493 0.127998C150.69 0.127998 152.717 0.671998 154.573 1.76C156.45 2.848 157.933 4.32 159.021 6.176C160.13 8.032 160.685 10.0587 160.685 12.256C160.685 14.4747 160.13 16.5227 159.021 18.4C157.933 20.256 156.45 21.728 154.573 22.816C152.717 23.904 150.69 24.448 148.493 24.448ZM148.493 18.56C149.581 18.56 150.583 18.2827 151.501 17.728C152.418 17.152 153.143 16.384 153.677 15.424C154.21 14.464 154.477 13.408 154.477 12.256C154.477 11.1253 154.21 10.0907 153.677 9.152C153.143 8.192 152.418 7.43467 151.501 6.88C150.583 6.304 149.581 6.016 148.493 6.016C147.383 6.016 146.359 6.304 145.421 6.88C144.503 7.43467 143.767 8.192 143.213 9.152C142.679 10.0907 142.413 11.1253 142.413 12.256C142.413 13.408 142.679 14.464 143.213 15.424C143.767 16.384 144.503 17.152 145.421 17.728C146.359 18.2827 147.383 18.56 148.493 18.56Z" fill="#FFB802"/>
</svg>
